<?xml version="1.0" encoding="utf-8"?>
<!-- Generator: Adobe Illustrator 18.1.0, SVG Export Plug-In . SVG Version: 6.00 Build 0)  -->
<svg version="1.1" id="Phone" xmlns="http://www.w3.org/2000/svg" xmlns:xlink="http://www.w3.org/1999/xlink" x="0px" y="0px"
	 viewBox="0 0 140 213" enable-background="new 0 0 140 213" xml:space="preserve">
<g id="PhonePath">
	<path d="M129.8,197.8c0,8.3-6.7,15-15,15H25.2c-8.3,0-15-6.8-15-15V15.3c0-8.3,6.8-15,15-15h89.7c8.3,0,15,6.8,15,15V197.8z
		 M19,19.1l-0.1,132.2c0,8.3,0,17.8,0,21.2c0,3.4,0,6.5,0,7c0,0.4,0.2,0.8,0.4,0.8c0.2,0,7.2,0,15.4,0h70.8c8.3,0,15.1,0,15.2,0
		s0.2-6.8,0.2-15V19.1c0-2.5-1-4.7-2.5-6.2c-1.3-1.3-2.9-2-4.7-2H26.2c-2.5,0-4.8,1.5-6,3.8C19.4,16,19,17.5,19,19.1z M69.9,184.8
		c-5.2,0-9.4,4.9-9.4,10.8s4.2,10.8,9.4,10.8c5.2,0,9.4-4.9,9.4-10.8S75.1,184.8,69.9,184.8z"/>
</g>
</svg>
